<svg xmlns="http://www.w3.org/2000/svg" viewBox="0 0 64 64" fill="none">
  <!-- Background circle -->
  <circle cx="32" cy="32" r="32" fill="#6d28d9"/>

  <!-- Stem -->
  <line x1="32" y1="52" x2="32" y2="36" stroke="#4ade80" stroke-width="2.5" stroke-linecap="round"/>

  <!-- Left leaf -->
  <path d="M32 44 Q22 38 20 30" stroke="#4ade80" stroke-width="2" fill="none" stroke-linecap="round"/>

  <!-- 3 falls (drooping outer petals) -->
  <path d="M32 34 Q20 34 16 42 Q20 38 32 38 Z" fill="#c4b5fd"/>
  <path d="M32 34 Q44 34 48 42 Q44 38 32 38 Z" fill="#c4b5fd"/>
  <path d="M32 34 Q32 46 32 52 Q29 46 32 38 Z" fill="#a78bfa"/>

  <!-- 3 standards (upright inner petals) -->
  <path d="M32 34 Q24 26 26 16 Q28 24 32 30 Z" fill="#7c3aed"/>
  <path d="M32 34 Q40 26 38 16 Q36 24 32 30 Z" fill="#7c3aed"/>
  <path d="M32 34 Q32 22 32 12 Q34 22 32 30 Z" fill="#6d28d9"/>

  <!-- Center -->
  <circle cx="32" cy="33" r="3" fill="#ede9fe"/>
</svg>
